HIERARCHY
ROOT joint_0
{
	OFFSET 0.000000 0.000000 0.000000
	CHANNELS 6 Xposition Yposition Zposition Zrotation Yrotation Xrotation 
	JOINT joint_1
	{
		OFFSET 5.091736 1.614004 124.993042
		CHANNELS 3 Zrotation Yrotation Xrotation
		JOINT joint_2
		{
			OFFSET -7.754517 4.363039 113.797974
			CHANNELS 3 Zrotation Yrotation Xrotation
			JOINT joint_3
			{
				OFFSET -8.706238 5.370684 113.558960
				CHANNELS 3 Zrotation Yrotation Xrotation
				JOINT joint_4
				{
					OFFSET 2.800659 5.843341 158.209106
					CHANNELS 3 Zrotation Yrotation Xrotation
					JOINT joint_5
					{
						OFFSET 20.525452 8.617594 92.185913
						CHANNELS 3 Zrotation Yrotation Xrotation
						End Site
						{
							OFFSET 0.000000 0.000000 0.000000
						}
					}
				}
				JOINT joint_6
				{
					OFFSET -4.183167 -30.671114 90.057007
					CHANNELS 3 Zrotation Yrotation Xrotation
					JOINT joint_7
					{
						OFFSET -24.729675 -138.200195 -6.097900
						CHANNELS 3 Zrotation Yrotation Xrotation
						JOINT joint_8
						{
							OFFSET 16.966858 -51.567780 -315.633057
							CHANNELS 3 Zrotation Yrotation Xrotation
							JOINT joint_9
							{
								OFFSET 129.835388 -40.459091 176.646973
								CHANNELS 3 Zrotation Yrotation Xrotation
								End Site
								{
									OFFSET 0.000000 0.000000 0.000000
								}
							}
						}
					}
				}
				JOINT joint_10
				{
					OFFSET 7.338745 37.199406 87.346069
					CHANNELS 3 Zrotation Yrotation Xrotation
					JOINT joint_11
					{
						OFFSET 20.327698 137.488367 -20.779053
						CHANNELS 3 Zrotation Yrotation Xrotation
						JOINT joint_12
						{
							OFFSET 150.763062 48.206573 -278.419922
							CHANNELS 3 Zrotation Yrotation Xrotation
							JOINT joint_13
							{
								OFFSET 12.571289 -162.355251 152.253906
								CHANNELS 3 Zrotation Yrotation Xrotation
								End Site
								{
									OFFSET 0.000000 0.000000 0.000000
								}
							}
						}
					}
				}
			}
		}
	}
	JOINT joint_14
	{
		OFFSET -7.600342 -77.970001 -95.010986
		CHANNELS 3 Zrotation Yrotation Xrotation
		JOINT joint_15
		{
			OFFSET -2.666199 -21.455009 -443.700989
			CHANNELS 3 Zrotation Yrotation Xrotation
			JOINT joint_16
			{
				OFFSET -22.487976 -19.310196 -481.059006
				CHANNELS 3 Zrotation Yrotation Xrotation
				JOINT joint_17
				{
					OFFSET 177.776611 65.723053 -82.445997
					CHANNELS 3 Zrotation Yrotation Xrotation
					End Site
					{
						OFFSET 0.000000 0.000000 0.000000
					}
				}
			}
		}
	}
	JOINT joint_18
	{
		OFFSET 17.063904 75.900681 -95.447021
		CHANNELS 3 Zrotation Yrotation Xrotation
		JOINT joint_19
		{
			OFFSET -21.510803 8.101997 -443.629944
			CHANNELS 3 Zrotation Yrotation Xrotation
			JOINT joint_20
			{
				OFFSET -7.473022 -28.501774 -481.230011
				CHANNELS 3 Zrotation Yrotation Xrotation
				JOINT joint_21
				{
					OFFSET 177.760559 -64.115177 -83.737001
					CHANNELS 3 Zrotation Yrotation Xrotation
					End Site
					{
						OFFSET 0.000000 0.000000 0.000000
					}
				}
			}
		}
	}
}
MOTION
Frames: 10
Frame Time: 0.016667
-223.861465 -24.075531 1155.475952 7.886520 4.702158 -2.149140 -0.036988 0.919905 0.362446 -0.121135 -0.079478 0.133742 -0.106055 0.206923 0.080321 1.128290 -8.386653 -2.117078 0.000000 0.000000 0.000000 4.009615 -5.704486 2.178791 12.049696 15.295612 -13.502191 -172.782164 46.094761 -167.456004 0.000000 0.000000 0.000000 -6.004690 2.938018 1.731452 17.788389 14.407755 -18.070304 51.370012 40.487085 36.055053 0.000000 0.000000 0.000000 -10.439617 -19.610532 1.092696 -12.087012 41.241511 -14.964172 -19.785971 5.298205 -9.482580 0.000000 0.000000 0.000000 -2.242091 -4.796415 1.190948 -1.700366 22.358090 9.812551 1.036698 1.483140 0.966132 0.000000 0.000000 0.000000 
-210.612488 -19.463848 1156.177002 7.671767 5.315063 -1.993848 -0.201747 0.481691 0.017962 -0.225477 -0.007298 0.212321 -0.205010 0.048307 0.021391 1.161042 -8.341136 -2.170837 0.000000 0.000000 0.000000 4.135578 -5.656606 2.543728 12.138470 15.106238 -14.208232 -173.109473 48.206984 -165.578457 0.000000 0.000000 0.000000 -6.168934 2.859712 1.650009 16.388315 13.699306 -18.857284 47.692719 39.353405 32.017243 0.000000 0.000000 0.000000 -11.000871 -21.719527 0.753923 -12.638149 42.166337 -15.900229 -21.830372 2.891142 -9.238682 0.000000 0.000000 0.000000 -2.414613 -4.559020 1.096753 -1.866255 21.868646 9.391151 0.680029 2.222992 1.084890 0.000000 0.000000 0.000000 
-197.352997 -14.248611 1157.040039 7.310412 6.030748 -1.876178 -0.393315 0.060443 -0.165465 -0.358242 0.096170 0.233723 -0.320599 -0.126991 0.005612 1.150539 -8.719513 -1.850631 0.000000 0.000000 0.000000 4.392961 -5.769972 2.952202 11.205378 14.829495 -14.835404 -174.390790 50.953093 -164.057411 0.000000 0.000000 0.000000 -6.094711 3.297227 1.848987 15.376267 13.653536 -20.231237 43.930135 37.649897 27.121040 0.000000 0.000000 0.000000 -11.426957 -23.643071 0.225806 -13.164625 42.104000 -16.279894 -23.421756 -0.399989 -8.557862 0.000000 0.000000 0.000000 -2.546404 -4.503381 0.965942 -2.000736 21.500784 9.011875 0.340532 3.020377 1.233026 0.000000 0.000000 0.000000 
-184.991104 -9.186460 1158.238037 6.825267 6.748165 -1.810384 -0.551948 -0.105616 -0.208211 -0.489908 0.154023 0.216656 -0.439264 -0.185855 0.026060 1.159669 -9.118294 -1.541669 0.000000 0.000000 0.000000 4.521897 -6.062412 3.200618 9.509280 13.935610 -14.952738 -176.549202 54.625314 -162.827130 0.000000 0.000000 0.000000 -5.879392 3.898183 2.132078 14.628360 13.783339 -21.071407 39.946725 35.244392 21.959984 0.000000 0.000000 0.000000 -11.669357 -25.325836 -0.274764 -13.630527 40.855088 -16.236802 -24.231953 -2.820067 -8.016222 0.000000 0.000000 0.000000 -2.694846 -4.699305 0.812923 -2.147847 21.419151 8.712986 -0.027148 4.042279 1.452538 0.000000 0.000000 0.000000 
-174.562958 -4.811418 1160.152954 6.202699 7.435729 -1.821446 -0.621749 0.261645 -0.118436 -0.584888 0.093770 0.186294 -0.542918 -0.008752 0.074892 1.237736 -9.320868 -1.554236 0.000000 0.000000 0.000000 4.349999 -6.118916 3.310990 9.050283 12.372973 -14.069506 -177.697547 58.452912 -160.680493 0.000000 0.000000 0.000000 -5.590802 4.445715 2.336764 14.282878 13.791196 -20.567468 35.617809 32.162499 16.688190 0.000000 0.000000 0.000000 -11.723056 -26.721703 -0.541599 -14.090795 37.986601 -15.744506 -24.057514 -2.802264 -8.142167 0.000000 0.000000 0.000000 -2.898674 -5.300356 0.655886 -2.343616 21.794171 8.531483 -0.481442 5.463049 1.784811 0.000000 0.000000 0.000000 
-165.730438 -0.834449 1162.713989 5.536733 8.068202 -1.864388 -0.678122 1.221577 0.024191 -0.669504 -0.110122 0.189647 -0.660654 0.308498 0.136449 1.360756 -9.450697 -1.745302 0.000000 0.000000 0.000000 4.056074 -5.074628 3.602209 13.303925 11.022324 -12.329170 -174.419798 60.350960 -154.474208 0.000000 0.000000 0.000000 -5.225258 5.133679 2.462433 14.444575 13.882915 -19.100540 31.122813 28.590758 11.072436 0.000000 0.000000 0.000000 -11.709897 -27.651197 -0.746422 -14.649939 33.417468 -14.561656 -23.110168 -0.693526 -8.845333 0.000000 0.000000 0.000000 -3.152323 -6.219642 0.462580 -2.616080 22.548579 8.443093 -1.074268 7.248304 2.198415 0.000000 0.000000 0.000000 
-156.523819 2.881131 1164.780029 4.998980 8.445375 -1.832155 -0.835886 2.320100 0.087847 -0.798709 -0.344490 0.252419 -0.828953 0.546943 0.176239 1.482077 -9.343450 -1.973008 0.000000 0.000000 0.000000 3.703612 -3.573125 3.942684 18.894102 9.821293 -10.550302 -170.118079 61.752445 -146.623678 0.000000 0.000000 0.000000 -4.855916 6.132504 2.739219 14.854029 14.227573 -17.082747 26.967234 25.026447 5.892878 0.000000 0.000000 0.000000 -11.634162 -27.939001 -1.262522 -15.047396 28.591607 -12.972503 -21.766467 2.196619 -9.635814 0.000000 0.000000 0.000000 -3.456334 -6.975426 0.189032 -2.978491 23.448446 8.345087 -1.795066 9.160000 2.613919 0.000000 0.000000 0.000000 
-145.383347 6.375966 1165.713013 4.377074 8.533026 -1.747938 -1.048875 2.938175 0.148497 -0.962005 -0.438605 0.313629 -1.016734 0.663186 0.186072 1.582678 -8.919578 -2.231553 0.000000 0.000000 0.000000 3.203708 -2.722896 4.128402 19.337517 8.053553 -8.881163 -170.547257 68.511375 -142.103652 0.000000 0.000000 0.000000 -4.548530 7.730871 3.288249 15.441304 15.008887 -14.439727 23.119748 21.579391 1.286216 0.000000 0.000000 0.000000 -11.295791 -27.674032 -2.205848 -14.947444 24.426447 -11.356322 -20.042991 4.513599 -9.935728 0.000000 0.000000 0.000000 -3.706254 -7.248891 -0.131297 -3.304365 24.217202 8.154555 -2.504100 11.058553 3.039695 0.000000 0.000000 0.000000 
-133.047180 9.608037 1165.949951 3.635426 8.396722 -1.635265 -1.284449 3.284462 0.250561 -1.148259 -0.469073 0.360640 -1.220101 0.766422 0.190285 1.680430 -8.270341 -2.615295 0.000000 0.000000 0.000000 2.581865 -1.961884 4.377200 16.917826 6.114837 -7.110528 -173.154787 78.058881 -141.300741 0.000000 0.000000 0.000000 -4.404357 10.032338 3.616614 16.419947 16.041538 -10.642366 19.379596 18.228235 -3.232961 0.000000 0.000000 0.000000 -10.689853 -26.874679 -3.480277 -14.391680 20.296508 -9.577382 -17.948525 6.832565 -10.004553 0.000000 0.000000 0.000000 -3.918814 -7.211360 -0.499222 -3.599446 24.926182 7.899809 -3.232109 13.068412 3.510115 0.000000 0.000000 0.000000 
-120.745605 12.722071 1164.954956 3.355293 8.088890 -1.388029 -1.601664 3.697377 0.203392 -1.403665 -0.528734 0.447888 -1.493648 0.860688 0.206510 1.729846 -7.493571 -2.963840 0.000000 0.000000 0.000000 2.080791 -0.973618 4.621301 14.440440 4.797057 -5.347981 -175.324881 85.811756 -142.776962 0.000000 0.000000 0.000000 -4.468890 12.352385 3.519644 17.144515 16.822216 -6.865512 16.406594 15.598797 -6.682222 0.000000 0.000000 0.000000 -10.010332 -25.894704 -5.109419 -13.592808 17.159386 -7.988579 -16.099728 9.479794 -10.230890 0.000000 0.000000 0.000000 -4.439357 -7.352896 -0.909520 -4.157672 26.166391 7.489455 -4.290580 15.003528 3.844057 0.000000 0.000000 0.000000 
